<svg xmlns="http://www.w3.org/2000/svg" width="20" height="20" viewBox="0 0 97.395 97.395"><path d="M12.5 0h72.4c6.87 0 12.5 5.1 12.5 12.5v72.4c0 7.4-5.63 12.5-12.5 12.5H12.5C5.62 97.4 0 92.3 0 84.9V12.5C0 5.1 5.62 0 12.5 0zm58.45 10.82c-2.4 0-4.4 1.97-4.4 4.4V25.7c.02 2.4 2 4.4 4.4 4.4h11c2.42 0 4.4-2 4.4-4.4V15.2c0-2.4-1.98-4.38-4.4-4.38h-11zM86.4 41.2h-8.6c.83 2.64 1.27 5.44 1.27 8.34 0 16.2-13.56 29.34-30.28 29.34-16.73 0-30.28-13.14-30.28-29.34 0-2.9.44-5.7 1.25-8.35h-8.95v41.13c0 2.13 1.75 3.87 3.88 3.87H82.5c2.13 0 3.87-1.74 3.87-3.87V41.2zM48.8 29.52c-10.8 0-19.57 8.5-19.57 18.96 0 10.45 8.76 18.94 19.56 18.94 10.8 0 19.55-8.5 19.55-18.95 0-10.48-8.76-18.97-19.56-18.97z"/></svg>