<svg xmlns="http://www.w3.org/2000/svg" viewBox="0 0 395.955 395.955" width="20" height="20"><path fill="#d9bf8f" d="M322.33 39.48C288.3 14.02 243.5 0 196.2 0 148.95 0 104.6 14.34 71.34 40.38 36.3 67.8 17 104.96 17 144.98c0 37.1 5.86 65.76 34.55 98.82 3.45 3.97 9.5 4.3 13.3.67l28.2-26.76c3.55-3.36 3.82-8.9.66-12.63C76.3 184.55 74.24 169.6 74.24 145c0-48.4 54.7-87.78 121.96-87.78 35.03 0 67.65 9.97 91.85 28.07 21.72 16.24 33.68 37.06 33.68 58.63 0 20.67-4.6 49-26.4 66.52-20.56 16.5-53.35 20.9-92.38 12.38v-105c0-5.07-4.12-9.18-9.2-9.18h-40.73c-5.08 0-9.2 4.1-9.2 9.2v214.12c-.28 2.18-1.63 3.45-2.23 3.9-1.63 1.26-2.96.98-3.4.9l-33.85-6.9c-4.97-1.02-9.83 2.2-10.84 7.17l-8.13 39.9c-1 4.98 2.2 9.84 7.18 10.85l33.84 6.9c4.16.84 8.36 1.26 12.54 1.26 13.88 0 27.53-4.6 38.77-13.28 14.98-11.56 24.17-29.04 25.2-47.95l.05-.8v-52.84c12.56 2.1 24.76 3.14 36.48 3.14 36.1 0 67.72-9.9 91.72-29.17 31.27-25.12 47.8-63.55 47.8-111.15 0-40.03-20.1-77.13-56.62-104.44z"/></svg>